<svg width="15" height="15" viewBox="0 0 9 9" fill="none" xmlns="http://www.w3.org/2000/svg">
<path d="M8.39411 1.23843C8.56876 1.06378 8.56876 0.780615 8.39411 0.605964C8.21946 0.431313 7.93629 0.431313 7.76164 0.605964L4.5001 3.86751L1.23855 0.605964C1.0639 0.431313 0.780737 0.431313 0.606086 0.605964C0.431435 0.780615 0.431435 1.06378 0.606086 1.23843L3.86763 4.49998L0.606086 7.76152C0.431435 7.93617 0.431435 8.21934 0.606086 8.39399C0.780737 8.56864 1.0639 8.56864 1.23855 8.39399L4.5001 5.13244L7.76164 8.39399C7.93629 8.56864 8.21946 8.56864 8.39411 8.39399C8.56876 8.21934 8.56876 7.93617 8.39411 7.76152L5.13257 4.49998L8.39411 1.23843Z" fill="#999999"/>
</svg>
