<svg width="16" height="16" viewBox="0 0 16 16" fill="none" xmlns="http://www.w3.org/2000/svg">
<path d="M14.4001 5.89835V11.6C14.4001 12.1304 14.1894 12.6391 13.8143 13.0142C13.4392 13.3892 12.9305 13.6 12.4001 13.6H3.6001C3.06966 13.6 2.56096 13.3892 2.18588 13.0142C1.81081 12.6391 1.6001 12.1304 1.6001 11.6V5.89835L7.7969 9.54475C7.85846 9.58106 7.92863 9.60021 8.0001 9.60021C8.07157 9.60021 8.14174 9.58106 8.2033 9.54475L14.4001 5.89835ZM12.4001 3.19995C12.8922 3.19987 13.3671 3.38124 13.7339 3.70934C14.1006 4.03745 14.3336 4.48926 14.3881 4.97835L8.0001 8.73595L1.6121 4.97835C1.66662 4.48926 1.89956 4.03745 2.26633 3.70934C2.63311 3.38124 3.10798 3.19987 3.6001 3.19995H12.4001Z" fill="#999999"/>
</svg>
